%
M48
M72
T01C0.0240
T02C0.0276
T03C0.0400
%
T01
X16390Y11980
X10000Y16210
X8740Y18100
X10360Y18550
X11980Y20080
X15220Y20080
X4060Y19990
T02
X6100Y19050
X6100Y18089
X6100Y17150
T03
X5600Y13100
X6600Y13100
X7600Y13100
X8600Y13100
X9600Y13100
X10600Y13100
X11600Y13100
X12600Y13100
X13600Y13100
X14600Y13100
X15600Y13100
X16600Y13100
X17600Y13100
X18600Y13100
X21100Y17100
X21100Y18100
X21100Y19100
X21100Y20100
X21100Y21100
X21100Y22100
X14600Y26100
X13600Y26100
X12600Y26100
X11600Y26100
X10600Y26100
X3100Y18600
X3100Y17600
X3100Y16600
X3100Y15600
M30
