G75*
%MOIN*%
%OFA0B0*%
%FSLAX24Y24*%
%IPPOS*%
%LPD*%
%AMOC8*
5,1,8,0,0,1.08239X$1,22.5*
%
%ADD10C,0.0600*%
%ADD11C,0.0476*%
%ADD12R,0.0591X0.0394*%
%ADD13R,0.0591X0.0276*%
%ADD14R,0.1102X0.0591*%
%ADD15R,0.0240X0.0870*%
%ADD16R,0.0531X0.0217*%
%ADD17R,0.0800X0.0260*%
%ADD18R,0.0394X0.0433*%
%ADD19C,0.0554*%
%ADD20C,0.0660*%
%ADD21C,0.0100*%
%ADD22C,0.0400*%
D10*
X004100Y014800D02*
X004100Y015400D01*
X005100Y015400D02*
X005100Y014800D01*
X006100Y014800D02*
X006100Y015400D01*
X007100Y015400D02*
X007100Y014800D01*
X010100Y014800D02*
X010100Y015400D01*
X011100Y015400D02*
X011100Y014800D01*
X012100Y014800D02*
X012100Y015400D01*
X013100Y015400D02*
X013100Y014800D01*
X014100Y014800D02*
X014100Y015400D01*
X015100Y015400D02*
X015100Y014800D01*
X017600Y014800D02*
X017600Y015400D01*
X018600Y015400D02*
X018600Y014800D01*
X019600Y014800D02*
X019600Y015400D01*
X026800Y017100D02*
X027400Y017100D01*
X027400Y018100D02*
X026800Y018100D01*
X026800Y019100D02*
X027400Y019100D01*
X027400Y020100D02*
X026800Y020100D01*
X026800Y021100D02*
X027400Y021100D01*
X027400Y022100D02*
X026800Y022100D01*
X014600Y023300D02*
X014600Y023900D01*
X013600Y023900D02*
X013600Y023300D01*
X012600Y023300D02*
X012600Y023900D01*
X011600Y023900D02*
X011600Y023300D01*
X010600Y023300D02*
X010600Y023900D01*
D11*
X007100Y021050D03*
X007100Y020089D03*
X007100Y019150D03*
D12*
X021100Y019537D03*
X021100Y018553D03*
X021100Y017569D03*
X021100Y016584D03*
X021100Y015600D03*
X021100Y020521D03*
X021100Y021506D03*
X021100Y022460D03*
X021100Y023130D03*
D13*
X021100Y023641D03*
X021100Y024114D03*
D14*
X021809Y024658D03*
X030273Y024658D03*
X021809Y014776D03*
X030273Y013910D03*
D15*
X012350Y018070D03*
X011850Y018070D03*
X011350Y018070D03*
X010850Y018070D03*
X010850Y020130D03*
X011350Y020130D03*
X011850Y020130D03*
X012350Y020130D03*
D16*
X009141Y022726D03*
X009141Y023100D03*
X009141Y023474D03*
X008059Y023474D03*
X008059Y023100D03*
X008059Y022726D03*
D17*
X015620Y022850D03*
X015620Y022350D03*
X015620Y021850D03*
X015620Y021350D03*
X015620Y020850D03*
X015620Y020350D03*
X015620Y019850D03*
X015620Y019350D03*
X015620Y018850D03*
X015620Y018350D03*
X019580Y018350D03*
X019580Y018850D03*
X019580Y019350D03*
X019580Y019850D03*
X019580Y020350D03*
X019580Y020850D03*
X019580Y021350D03*
X019580Y021850D03*
X019580Y022350D03*
X019580Y022850D03*
D18*
X018935Y017100D03*
X018265Y017100D03*
X018265Y016100D03*
X018935Y016100D03*
D19*
X020100Y016663D03*
X020100Y024537D03*
D20*
X005100Y021569D03*
X005100Y017631D03*
D21*
X004150Y015850D02*
X010360Y015850D01*
X011080Y015130D01*
X011100Y015100D01*
X011530Y014590D02*
X011980Y014140D01*
X018910Y014140D01*
X019720Y014950D01*
X019600Y015100D01*
X019630Y015040D01*
X019720Y014950D01*
X019900Y014770D01*
X021790Y014770D01*
X021809Y014776D01*
X021880Y014770D01*
X022690Y013960D01*
X027910Y013960D01*
X027910Y021250D01*
X027100Y022060D01*
X027100Y022100D01*
X027100Y022150D01*
X025750Y023500D01*
X022960Y023500D01*
X022960Y024220D01*
X022510Y024670D01*
X021880Y024670D01*
X021809Y024658D01*
X022960Y023500D02*
X021160Y021700D01*
X021160Y021520D01*
X021100Y021506D01*
X021100Y022460D02*
X021070Y022510D01*
X020800Y022780D01*
X020710Y022780D01*
X020530Y022960D01*
X020530Y024760D01*
X020260Y025030D01*
X017020Y025030D01*
X014320Y022330D01*
X011440Y022330D01*
X011080Y021970D01*
X010540Y022510D01*
X009550Y021520D01*
X009460Y021970D02*
X008920Y021970D01*
X008740Y022150D01*
X008740Y023050D01*
X008380Y023410D01*
X008110Y023410D01*
X008059Y023474D01*
X008380Y023770D02*
X006580Y023770D01*
X004150Y021340D01*
X004150Y015850D01*
X004150Y015130D01*
X004100Y015100D01*
X007100Y015100D02*
X007120Y015130D01*
X010090Y015130D01*
X010100Y015100D01*
X010180Y015040D01*
X010900Y014320D01*
X011260Y014320D01*
X011530Y014590D01*
X011530Y017110D01*
X012790Y017110D01*
X014860Y019180D01*
X015040Y019180D01*
X015040Y019810D01*
X014860Y019810D01*
X015040Y019810D02*
X015040Y021970D01*
X011620Y021970D01*
X011080Y021970D02*
X012340Y020710D01*
X012520Y020710D01*
X013150Y020080D01*
X013150Y019540D01*
X012250Y018640D01*
X012160Y018640D01*
X011890Y018370D01*
X011890Y018100D01*
X011850Y018070D01*
X012350Y018070D02*
X012430Y018100D01*
X012790Y018460D01*
X013060Y018460D01*
X012790Y017650D02*
X014500Y019360D01*
X014500Y020440D01*
X015620Y020350D02*
X018280Y020350D01*
X019270Y019360D01*
X019540Y019360D01*
X019580Y019350D01*
X019900Y018910D02*
X020170Y019180D01*
X020170Y024490D01*
X020100Y024537D01*
X018820Y021430D02*
X018100Y020710D01*
X017920Y020710D01*
X015940Y019810D02*
X015670Y019810D01*
X015620Y019850D01*
X015940Y019810D02*
X018190Y017560D01*
X018190Y017110D01*
X018265Y017100D01*
X018190Y017020D01*
X017920Y016750D01*
X017740Y016750D01*
X018010Y016480D02*
X017920Y016390D01*
X016120Y016390D01*
X015490Y017020D01*
X015130Y016840D02*
X014500Y016210D01*
X012250Y016210D01*
X011530Y017110D02*
X010900Y017740D01*
X010900Y018010D01*
X010850Y018070D01*
X010810Y018100D01*
X009100Y018100D01*
X007120Y020080D01*
X007100Y020089D01*
X007120Y020170D01*
X005410Y021880D01*
X006580Y023050D01*
X008020Y023050D01*
X008059Y023100D01*
X008059Y022726D02*
X008110Y022690D01*
X008110Y022420D01*
X009820Y020710D01*
X010270Y020710D01*
X011080Y020710D01*
X011350Y020440D01*
X011350Y020130D01*
X011800Y020080D02*
X011800Y019720D01*
X010900Y018820D01*
X010850Y020130D02*
X010810Y020170D01*
X010090Y020170D01*
X009910Y020350D01*
X009010Y021250D01*
X008740Y021250D01*
X008020Y021970D01*
X009100Y022330D02*
X009100Y022690D01*
X009141Y022726D01*
X009190Y023050D02*
X009141Y023100D01*
X009190Y023050D02*
X010000Y023050D01*
X010540Y022510D01*
X009550Y022060D02*
X009460Y021970D01*
X009141Y023474D02*
X009100Y023500D01*
X008650Y023500D01*
X008380Y023770D01*
X005410Y021880D02*
X005140Y021610D01*
X005100Y021569D01*
X011800Y020080D02*
X011850Y020130D01*
X011890Y020170D01*
X012340Y020170D01*
X012350Y020130D01*
X012430Y020080D01*
X012790Y019720D01*
X015040Y019180D02*
X015310Y018910D01*
X015580Y018910D01*
X015620Y018850D01*
X015620Y018350D02*
X015580Y018280D01*
X015130Y017830D01*
X015130Y016840D01*
X015850Y016120D01*
X018190Y016120D01*
X018265Y016100D01*
X018010Y016480D02*
X019000Y016480D01*
X019000Y016120D01*
X018935Y016100D01*
X019000Y016480D02*
X019000Y017020D01*
X018935Y017100D01*
X019000Y017110D01*
X019000Y017740D01*
X019540Y018280D01*
X019580Y018350D01*
X019630Y018370D01*
X019990Y018370D01*
X021070Y019450D01*
X021100Y019537D01*
X021160Y019540D01*
X021880Y019540D01*
X022420Y020080D01*
X027100Y020080D01*
X027100Y020100D01*
X027100Y022150D02*
X029530Y024580D01*
X030250Y024580D01*
X030273Y024658D01*
X021700Y019900D02*
X021160Y020440D01*
X021100Y020521D01*
X019900Y018910D02*
X019630Y018910D01*
X019580Y018850D01*
X021070Y018550D02*
X021070Y018280D01*
X020170Y017380D01*
X020170Y016750D01*
X020100Y016663D01*
X019630Y016120D02*
X019090Y015580D01*
X019090Y014680D01*
X018730Y014320D01*
X012880Y014320D01*
X012100Y015100D01*
X011800Y014050D02*
X011890Y013960D01*
X019990Y013960D01*
X020620Y015130D02*
X020620Y016120D01*
X021070Y016570D01*
X021100Y016584D01*
X021100Y017569D02*
X021160Y017650D01*
X021160Y017920D01*
X021700Y018460D01*
X021100Y018553D02*
X021070Y018550D01*
X015620Y021850D02*
X015580Y021880D01*
X015490Y021970D01*
X015040Y021970D01*
X011800Y014050D02*
X011530Y014050D01*
X027910Y013960D02*
X030250Y013960D01*
X030273Y013910D01*
D22*
X011530Y014050D03*
X012250Y016210D03*
X012790Y017650D03*
X013060Y018460D03*
X012790Y019720D03*
X014500Y020440D03*
X014860Y019810D03*
X017920Y020710D03*
X018820Y021430D03*
X021700Y019900D03*
X021700Y018460D03*
X019630Y016120D03*
X020620Y015130D03*
X019990Y013960D03*
X017740Y016750D03*
X015490Y017020D03*
X010900Y018820D03*
X009910Y020350D03*
X010270Y020710D03*
X009550Y021520D03*
X009550Y022060D03*
X009100Y022330D03*
X008020Y021970D03*
X008740Y021250D03*
X011620Y021970D03*
M02*
