%
M48
M72
T01C0.0240
T02C0.0276
T03C0.0354
T04C0.0400
T05C0.0433
T06C0.0591
T07C0.0827
%
T01
X11530Y14050
X12250Y16210
X12790Y17650
X13060Y18460
X12790Y19720
X14500Y20440
X14860Y19810
X17920Y20710
X18820Y21430
X21700Y19900
X21700Y18460
X19630Y16120
X20620Y15130
X19990Y13960
X17740Y16750
X15490Y17020
X10900Y18820
X9910Y20350
X10270Y20710
X9550Y21520
X9550Y22060
X9100Y22330
X8020Y21970
X8740Y21250
X11620Y21970
T02
X7100Y21050
X7100Y20089
X7100Y19150
T03
X20100Y16663
X20100Y24537
T04
X14600Y23600
X13600Y23600
X12600Y23600
X11600Y23600
X10600Y23600
X10100Y15100
X11100Y15100
X12100Y15100
X13100Y15100
X14100Y15100
X15100Y15100
X17600Y15100
X18600Y15100
X19600Y15100
X27100Y17100
X27100Y18100
X27100Y19100
X27100Y20100
X27100Y21100
X27100Y22100
X7100Y15100
X6100Y15100
X5100Y15100
X4100Y15100
T05
X5100Y17631
X5100Y21569
T06
X22202Y23868
T07
X22202Y15600
M30
